# xmcd CD database file
#
# Track frame offsets:
#	150
#	24537
#	48150
#	68902
#	93482
#	119205
#	146855
#
# Disc length: 2310 seconds
#
# Revision: 0
# Processed by: cddbd v1.5.2PL0 Copyright (c) Steve Scherf et al.
# Submitted via: CDex 1.51
#
DISCID=67090407
DTITLE=Masahiko Sato - Brink
DYEAR=1983
DGENRE=Jazz
TTITLE0=Brink
TTITLE1=Someday My Prince Will Come
TTITLE2=Flying Riceman
TTITLE3=Waver
TTITLE4=Muzyno Line
TTITLE5=Here Comes The Sun
TTITLE6=Jacke's Dissatisfcation
EXTD=YEAR: 1983
EXTT0=
EXTT1=
EXTT2=
EXTT3=
EXTT4=
EXTT5=
EXTT6=
PLAYORDER=
